<svg xmlns="http://www.w3.org/2000/svg" xmlns:xlink="http://www.w3.org/1999/xlink" version="1.1" x="0px" y="0px" viewBox="0 0 100 125" enable-background="new 0 0 100 100" xml:space="preserve"><symbol viewBox="-9.858 -9.858 19.716 19.716"><path fill="#000000" stroke="#592F37" stroke-width="2.5699" stroke-miterlimit="10" d="M8.573,0c0-4.735-3.838-8.573-8.573-8.573   S-8.573-4.735-8.573,0c0,4.735,3.838,8.573,8.573,8.573S8.573,4.735,8.573,0z"/><path fill="#000000" stroke="#592F37" stroke-width="2.5699" stroke-miterlimit="10" d="M2.858,0c0-1.578-1.279-2.858-2.858-2.858   c-1.578,0-2.858,1.279-2.858,2.858c0,1.578,1.279,2.858,2.858,2.858C1.578,2.858,2.858,1.578,2.858,0z"/></symbol><symbol viewBox="-5.525 -16.49 11.051 32.981"><path fill="#000000" stroke="#592F37" stroke-width="2" stroke-miterlimit="10" d="M4.526-15.49h-9.051v30.981h1.559   c4.138,0,7.492-3.354,7.492-7.492V-15.49z"/></symbol><g display="none"><rect x="-842.374" y="-1133.377" display="inline" fill="#000000" width="1328.934" height="1233.377"/></g><g><path d="M50,27.415c-12.453,0-22.585,10.132-22.585,22.585S37.547,72.585,50,72.585S72.585,62.453,72.585,50   S62.453,27.415,50,27.415z M51.361,62.291c-6.778,0-12.291-5.513-12.291-12.291c0-6.778,5.513-12.293,12.291-12.293   S63.654,43.222,63.654,50C63.654,56.778,58.139,62.291,51.361,62.291z"/><path d="M54.996,5H5v49.997C5,77.055,22.945,95,45.003,95H95V45.003C95,22.945,77.053,5,54.996,5z M50,83.401   c-18.418,0-33.401-14.983-33.401-33.401S31.582,16.599,50,16.599S83.401,31.582,83.401,50S68.418,83.401,50,83.401z"/><path d="M51.39,45.653c-2.572,0-4.665,2.093-4.665,4.667c0,2.572,2.093,4.665,4.665,4.665c2.574,0,4.667-2.093,4.667-4.665   C56.057,47.746,53.964,45.653,51.39,45.653z"/></g><text x="0" y="115" fill="#000000" font-size="5px" font-weight="bold" font-family="'Helvetica Neue', Helvetica, Arial-Unicode, Arial, Sans-serif">Created by Oksana Latysheva</text><text x="0" y="120" fill="#000000" font-size="5px" font-weight="bold" font-family="'Helvetica Neue', Helvetica, Arial-Unicode, Arial, Sans-serif">from the Noun Project</text></svg>